<svg id="logo" xmlns="http://www.w3.org/2000/svg" viewBox="0 0 129.77 132.95"><defs><style>.cls-1{fill:#e50058;}.cls-2{fill:#fff;}</style></defs><path id="chat" class="cls-1" d="M70.24,5.36A64.86,64.86,0,0,0,23,114.71l-.95,20.43a3,3,0,0,0,2.82,3.17,3.16,3.16,0,0,0,1.18-.17L47.36,131A64.89,64.89,0,1,0,70.24,5.36Z" transform="translate(-5.36 -5.36)"/><path id="c-2" class="cls-2" d="M86.87,81q-1,9-6.44,13.79T65.88,99.54a20.11,20.11,0,0,1-11.23-3.18,20.66,20.66,0,0,1-7.54-9,32,32,0,0,1-2.7-13.3v-7.4a32.36,32.36,0,0,1,2.66-13.48,20.56,20.56,0,0,1,7.66-9.07,21,21,0,0,1,11.5-3.19q9.17,0,14.47,4.94t6.17,13.67H82Q80.21,45,66.23,45a15,15,0,0,0-12.36,5.8q-4.6,5.81-4.6,16v7q0,9.89,4.48,15.76a14.46,14.46,0,0,0,12.13,5.88q7.56,0,11.4-3.62T82,81Z" transform="translate(-5.36 -5.36)"/><path id="c-1" class="cls-2" d="M96.08,81q-1,9-6.45,13.79T75.08,99.54a20.08,20.08,0,0,1-11.22-3.18,20.62,20.62,0,0,1-7.5-9,32,32,0,0,1-2.71-13.3v-7.4a32.21,32.21,0,0,1,2.67-13.48A20.5,20.5,0,0,1,64,44.11a21,21,0,0,1,11.49-3.19q9.16,0,14.48,4.94t6.17,13.67h-4.9Q89.42,45,75.43,45a15,15,0,0,0-12.36,5.8q-4.59,5.81-4.6,16v7q0,9.89,4.49,15.76a14.44,14.44,0,0,0,12.12,5.88q7.56,0,11.4-3.62T91.22,81Z" transform="translate(-5.36 -5.36)"/></svg>